<svg width="618" height="599" viewBox="0 0 618 599" fill="none" xmlns="http://www.w3.org/2000/svg">
<path d="M204.877 146.977C202.113 62.3414 257.516 29.7257 308.297 0H308.817C359.599 29.7257 415.002 62.3414 412.238 146.977C409.124 242.347 345.768 299.734 345.768 376.526C345.768 453.317 363.934 476.024 384.989 509.466C382.787 515.246 370.219 533.721 358.566 544.971C346.594 556.531 324.093 570.569 308.817 578H308.297C293.022 570.569 270.521 556.531 258.548 544.971C246.895 533.721 234.327 515.246 232.125 509.466C253.181 476.024 271.346 453.317 271.346 376.526C271.346 299.734 207.991 242.347 204.877 146.977Z" fill="url(#paint0_radial_84_43)" fill-opacity="0.18"/>
<path d="M502.278 301.799C533.656 308.735 535.307 351.755 529.114 359.186C550.583 372.397 571.638 360.425 598.061 330.699C626.41 298.807 627.787 215.925 571.225 187.85C520.444 162.644 479.691 178.353 461.406 194.869C435.808 217.989 399.477 268.77 382.963 334.827C363.355 413.259 377.221 478.468 413.514 502.447C436.634 517.723 455.626 515.659 469.25 497.08C478.479 484.495 481.498 467.355 477.094 461.162C474.204 464.877 467.351 473.135 451.497 471.483C427.964 469.032 406.26 414.509 413.514 380.655C428.377 311.295 465.121 293.585 502.278 301.799Z" fill="url(#paint1_radial_84_43)" fill-opacity="0.18"/>
<path d="M114.935 301.799C83.5582 308.735 81.9068 351.755 88.0997 359.186C66.6311 372.397 45.5754 360.425 19.1526 330.699C-9.19601 298.807 -10.573 215.925 45.9883 187.85C96.7697 162.644 137.523 178.353 155.808 194.869C181.405 217.989 217.737 268.77 234.251 334.827C253.859 413.259 239.993 478.468 203.7 502.447C180.58 517.723 161.588 515.659 147.964 497.08C138.735 484.495 135.716 467.355 140.12 461.162C143.01 464.877 149.863 473.135 165.717 471.483C189.25 469.032 210.954 414.509 203.7 380.655C188.837 311.295 152.093 293.585 114.935 301.799Z" fill="url(#paint2_radial_84_43)" fill-opacity="0.18"/>
<path d="M195.828 199.5C222.828 216 233.828 241.5 233.828 241.5C233.828 241.5 230.578 246.5 227.828 251.5C225.078 256.5 223.328 265.5 223.328 265.5C217.495 261 202.328 245 185.828 238.5C169.546 232.086 154.328 227.5 141.828 221.5C133.323 217.418 121.828 208.5 107.828 194.5C125.328 219 138.328 231.5 156.328 246C166.155 253.917 182.828 265 198.828 281.5C208.194 291.158 210.828 298.5 213.328 308.5C208.161 304.167 199.828 297.5 193.328 295C187.481 292.751 180.343 292.5 171.828 292.5C164.828 292.5 152.828 293 141.828 294.5C188.328 304 194.583 314.574 204.328 331.5C213.828 348 208.495 376.333 202.828 388.5C198.828 361.5 194.328 340 180.328 330.5C164.363 319.667 122.828 318.5 102.328 303C86.51 291.04 78.828 281.5 67.328 252.5C73.9947 256.333 89.328 268.5 104.828 270.5C120.328 272.5 136.828 266.5 136.828 266.5C136.828 266.5 89.828 239.5 66.328 199C42.828 158.5 46.3281 101.5 52.828 73.5C65.828 128 85.328 146.5 112.828 160.5C140.328 174.5 171.584 184.684 195.828 199.5Z" fill="url(#paint3_linear_84_43)"/>
<path d="M355.828 280C345.328 304.095 348.328 348.786 348.328 348.786C372.828 299 406.324 276.056 427.013 267.905C447.428 259.862 466.509 254.111 482.182 246.587C492.846 241.468 507.259 230.286 524.813 212.73C502.871 243.452 486.57 259.127 464.001 277.31C451.679 287.237 430.774 301.135 410.713 321.825C398.97 333.937 395.667 343.143 392.532 355.683C399.01 350.249 409.459 341.889 417.609 338.754C424.941 335.934 433.89 335.619 444.567 335.619C453.343 335.619 468.39 336.246 482.182 338.127C423.878 350.04 416.035 363.3 403.816 384.524C391.905 405.214 398.592 440.743 405.697 456C410.713 422.143 416.355 395.183 433.909 383.27C453.927 369.685 506.005 368.222 531.709 348.786C551.542 333.788 561.174 321.825 575.594 285.46C567.235 290.267 548.009 305.524 528.574 308.032C509.14 310.54 488.451 303.016 488.451 303.016C488.451 303.016 547.382 269.159 576.848 218.373C606.313 167.587 601.924 96.1111 593.774 61C577.474 129.341 553.024 152.54 518.544 170.095C484.063 187.651 444.872 200.422 414.474 219C380.62 239.69 366.328 255.905 355.828 280Z" fill="url(#paint4_linear_84_43)"/>
<path d="M235.328 106C225.328 116 224.328 128 225.328 132C252.828 118.5 271.447 136.026 279.828 145.5C291.328 158.5 293.382 175 287.328 207C280.328 244 267.328 260.5 269.328 300C273.1 374.5 332.328 401.5 354.828 415C333.828 385 304.791 331.5 306.328 300C307.865 268.5 309.854 257.275 315.328 231C320.328 207 322.328 186.5 320.328 176C322.995 180.833 329.328 187 331.828 201C333.218 208.783 337.828 240 338.828 250.5C339.55 258.076 342.328 280 346.328 292C348.328 281 349.328 272.5 354.828 262.5C359.58 253.859 368.328 246 368.328 246C367.328 235 364.828 225.9 362.828 211.5C360.828 197.1 354.828 181.5 350.328 173.5C353.328 173.5 358.328 173.188 362.828 171.5C366.648 170.068 369.661 167.667 370.828 166C360.828 160.5 355.328 157 349.328 150.5C343.943 144.666 339.328 133.167 337.828 127.5C346.828 128.5 353.328 128.292 360.828 126C378.828 120.5 388.328 111.5 392.828 104.5C386.328 107 376.328 109.518 366.828 108.5C349.328 106.625 341.328 103 333.328 98.5C339.828 98 345.26 96.3407 348.328 94.5C350.828 93 353.828 87 355.828 80.5C346.328 83 336.328 85 315.328 85C310.828 85 303.328 80.5 277.828 85C270.565 86.2817 258.161 94.3333 252.828 98C249.661 98.8333 241.381 99.9469 235.328 106Z" fill="url(#paint5_linear_84_43)"/>
<path d="M277.328 178C280.899 158.163 276.328 150.5 262.328 131C273.328 138 284.328 145.5 290.328 165.5C298.328 206 266.672 258.356 265.828 311.5C265.3 344.759 278.328 376 300.328 399.5C322.328 423 368.328 444 376.328 448C351.328 445 316.828 439.464 293.828 426.5C249.227 401.361 225.828 364 227.828 311.5C229.828 259 272.828 203 277.328 178Z" fill="url(#paint6_linear_84_43)"/>
<path d="M197.551 575.674C197.551 575.674 193.427 571.554 191.567 575.816C189.71 580.124 187.806 585.097 187.126 587.086C186.446 589.026 184.223 592.957 181.324 592.957C181.324 592.957 179.102 597.597 171.396 597.597C163.78 597.597 159.836 595.276 157.116 592.248C157.116 592.248 150.815 589.547 149.954 579.603C149.954 579.603 144.65 577.994 143.29 576.193C141.93 574.395 140.207 573.164 138.847 573.164C137.487 573.164 137.669 569.611 135.085 570.464C132.546 571.363 132.365 570.841 132.365 569.611C132.365 568.333 132.365 567.622 130.142 566.724C127.921 565.824 126.063 563.597 124.341 564.26C122.619 564.972 122.301 563.883 122.12 562.508C121.939 561.087 120.579 559.1 119.037 558.058C117.495 556.969 116.136 556.259 114.958 556.779C113.734 557.348 113.235 556.448 113.235 554.459C113.235 552.518 111.376 552.896 110.832 550.197C110.334 547.545 108.475 546.788 108.294 543.757C108.112 540.726 107.432 539.306 105.891 538.974C104.35 538.596 105.03 536.654 106.254 534.334C107.432 532.013 109.472 527.183 109.472 524.673C109.472 522.211 109.835 521.122 111.512 521.122C113.235 521.122 114.278 518.802 114.278 516.15C114.278 513.451 114.278 511.651 116.635 512.219C116.635 512.219 118.357 506.158 120.76 503.127C123.163 500.097 123.661 499.907 122.8 497.397C121.939 494.888 119.899 483.144 122.12 475.804C124.341 468.511 124.659 471.874 127.242 475.094C129.781 478.314 133.408 483.144 133.408 485.464C133.408 485.464 140.57 483.665 138.53 492.046C138.53 492.046 146.69 498.297 148.231 494.367C149.772 490.436 150.271 489.537 144.468 483.665C138.666 477.793 131.866 472.252 129.962 471.542C128.104 470.832 128.738 468.654 134.813 471.211C140.887 473.72 145.556 480.208 148.503 481.96C151.495 483.76 154.487 485.275 158.295 483.76C162.148 482.197 165.321 480.208 168.948 483.617C168.948 483.617 174.614 481.297 178.557 482.386C182.502 483.523 185.266 485.275 191.023 481.96C196.735 478.645 209.609 470.832 214.187 470.406C218.766 469.979 209.608 475.757 207.796 476.751C205.984 477.746 193.97 485.085 191.748 487.169C191.748 487.169 191.839 491.62 198.457 494.746C198.457 494.746 198.865 493.088 198.775 492.094C198.684 491.052 199.319 489.205 201.631 489.726C203.989 490.296 204.078 487.074 203.898 485.985C203.672 484.849 204.533 483.428 206.12 483.428C207.706 483.428 209.429 481.534 211.83 479.308C214.279 477.083 215.91 474.621 215.91 474.621C215.91 474.621 216.953 472.964 216.726 477.842C216.543 482.719 211.74 494.984 210.062 498.299C208.34 501.613 212.919 497.967 213.962 495.078C215.049 492.19 217.861 482.956 218.449 480.635C219.49 476.421 220.579 481.393 219.49 484.092C218.449 486.744 217.269 492.616 217.903 494.605C218.538 496.641 217.903 500.193 218.221 501.613C218.538 503.081 216.725 503.507 216.226 504.502C215.682 505.496 216.543 505.97 218.041 507.533C219.489 509.048 220.897 508.716 220.897 511.084C220.897 513.404 221.214 513.641 223.343 514.399C225.473 515.157 225.473 515.725 225.338 517.288C225.247 518.85 225.473 520.271 226.607 522.639C227.787 524.959 229.827 528.747 229.51 529.836C229.192 530.926 227.47 533.625 229.375 534.288C231.323 534.951 231.731 537.413 231.187 539.591C230.688 541.817 231.322 542.811 232.274 543.19C233.226 543.522 232.274 547.499 230.87 548.068C229.51 548.589 228.422 549.725 227.787 551.713C227.151 553.701 225.564 557.727 223.887 557.491C222.166 557.253 220.897 558.391 220.897 558.959C220.897 559.48 219.49 560.143 218.449 559.953C217.361 559.717 216.091 560.474 215.366 561.706C214.597 562.937 215.91 566.441 213.962 565.115C212.057 563.789 210.561 564.784 210.381 566.11C210.152 567.435 210.244 568.573 207.478 568.573C204.713 568.573 203.127 570.136 201.313 570.657C199.501 571.222 197.915 571.65 197.551 575.674Z" fill="#2D509F"/>
<path d="M181.751 551.952C181.751 551.952 181.391 549.819 181.932 547.687C182.471 545.555 182.156 542.759 182.156 542.759C182.156 542.759 190.151 539.916 193.025 537.879C195.946 535.842 197.157 537.026 196.934 539.206C196.753 541.433 198.148 541.433 196.349 543.612C194.508 545.839 193.969 548.303 190.87 548.114C187.771 547.877 183.279 547.119 183.279 549.535C183.279 551.952 182.965 553.989 181.751 551.952Z" fill="#FADF3C"/>
<path d="M164.675 490.567C164.675 490.567 164.312 487.736 162.728 489.529C161.143 491.322 159.196 494.059 158.743 495.238C158.335 496.465 157.837 497.362 155.799 497.928C153.762 498.541 152.358 499.957 150.456 500.193C148.6 500.428 145.43 501.231 148.645 498.541C151.905 495.852 155.799 493.87 157.294 491.935C158.835 490.001 158.697 490.284 158.697 488.349C158.697 486.368 157.973 485.424 160.056 485.094C162.139 484.811 163.724 483.537 165.808 484.952C167.89 486.368 168.388 485.99 168.344 489.293C168.253 492.596 168.344 495.238 169.656 493.681C170.88 492.077 170.519 492.69 172.102 494.106C173.686 495.521 175.226 496.088 177.173 496.984C179.121 497.881 179.3 500.193 177.082 500.193C174.865 500.193 175.272 499.957 175.363 502.457C175.407 504.911 174.004 505.855 174.999 507.553C175.997 509.299 177.446 510.195 177.309 511.894C177.174 513.64 177.536 514.771 178.306 515.809C179.121 516.847 180.342 518.122 180.253 519.772C180.164 521.471 180.525 522.179 182.11 523.689C183.695 525.197 183.334 524.963 187.453 525.104C191.574 525.293 192.796 525.67 193.521 526.756C194.245 527.888 195.513 529.349 197.054 529.634C198.549 529.917 200.722 529.256 201.309 530.672C201.854 532.087 203.619 530.766 205.114 530.766C206.609 530.766 209.506 527.982 211.587 530.011C213.67 532.04 215.121 531.521 215.438 532.04C215.71 532.559 217.656 532.701 218.971 532.701C220.239 532.701 225.808 530.153 224.858 532.559C223.907 534.966 224.224 534.494 226.171 536.004C228.118 537.513 228.252 538.032 228.252 540.58C228.252 543.128 228.252 549.592 226.714 548.79C225.219 547.942 223.273 547.942 223.273 547.942C223.273 547.942 221.778 549.075 223.407 549.735C225.083 550.443 223.724 551.764 221.958 552.095C220.239 552.378 217.884 551.387 218.246 553.604C218.607 555.775 216.48 554.69 215.122 554.69C213.763 554.69 211.454 554.123 209.371 556.907C207.288 559.644 203.077 562.286 199.274 562.286C195.472 562.286 190.128 562.805 188.542 563.466C186.956 564.126 185.371 564.126 186.005 560.871C186.686 557.568 185.01 557.19 188.769 554.926C192.526 552.708 197.19 549.971 199.048 548.037C200.95 546.055 201.175 544.404 201.175 541.714C201.175 539.025 202.082 536.76 204.977 537.137C207.877 537.515 208.011 537.279 208.873 535.863C209.735 534.448 210.321 533.551 208.42 533.599C206.563 533.693 197.689 533.693 194.609 533.315C191.487 532.938 188.814 531.287 186.595 533.551C184.376 535.769 181.569 535.203 180.753 538.506C179.984 541.808 179.667 544.781 179.667 544.781C179.667 544.781 178.942 548.414 177.809 545.347C176.632 542.233 176.134 541.289 175.139 541.856C174.141 542.469 174.187 546.527 172.556 545.16C170.881 543.839 170.837 543.367 170.972 541.668C171.106 539.922 169.704 539.545 169.568 541.102C169.432 542.706 169.07 546.811 169.93 548.18C169.93 548.18 167.486 548.699 166.036 551.577C164.587 554.408 164.314 556.909 164.813 560.495C165.311 564.033 166.397 568.61 166.443 571.252C166.533 573.895 166.306 575.214 166.306 575.214C166.306 575.214 170.609 574.648 173.055 576.205C175.499 577.811 175.725 579.131 173.416 579.887C171.106 580.643 168.072 581.397 166.804 580.027C165.582 578.706 164.813 577.575 162.504 578.188C160.194 578.756 159.606 580.027 161.145 583.333C162.64 586.636 168.119 590.408 171.605 590.408C175.139 590.408 178.579 588.286 180.027 582.953C181.476 577.621 182.427 574.933 183.424 573.752C184.419 572.525 186.23 572.997 186.864 575.592C186.864 575.592 187.906 582.291 185.1 587.482C182.292 592.671 181.204 591.775 179.619 591.68C178.034 591.586 174.005 591.304 172.057 592.151C170.111 592.954 162.775 592.813 160.646 591.963C158.472 591.16 155.574 590.263 153.491 586.583C151.408 582.904 149.959 578.703 153.355 572.381C153.355 572.381 151.182 570.448 151.272 568.796C151.318 567.145 150.82 566.767 149.371 566.579C147.967 566.438 148.239 563.135 144.978 563.512C141.763 563.983 136.557 564.031 135.922 562.426C135.242 560.775 134.02 560.02 132.752 560.635C131.439 561.248 128.495 561.154 128.495 559.595C128.495 557.992 127.861 557.802 126.458 557.802C125.099 557.802 124.103 558.321 121.839 555.774C119.62 553.226 117.084 551.197 117.628 549.215C118.126 547.28 118.035 545.393 116.948 542.94C115.862 540.439 115.499 539.92 114.277 541.571C113.054 543.223 111.333 544.025 110.971 541.43C110.609 538.787 110.745 538.268 110.971 532.842C111.198 527.463 111.967 530.294 111.967 527.605C111.967 524.915 111.922 525.058 113.733 523.925C115.499 522.792 116.722 519.489 117.265 515.007C117.763 510.477 119.258 509.579 119.892 511.468C120.571 513.355 121.658 515.196 124.373 512.27C127.136 509.345 135.785 503.824 140.675 502.079C145.566 500.333 145.656 501.418 143.846 503.824C142.035 506.184 138.956 504.862 137.007 507.835C135.06 510.856 127.317 517.46 125.732 519.112C124.147 520.763 122.064 523.17 122.426 524.774C122.789 526.331 124.509 526.237 125.551 527.322C126.547 528.36 126.185 530.436 124.464 531.757C124.464 531.757 125.234 534.352 123.785 535.579C122.381 536.759 123.513 537.749 125.007 538.552C126.548 539.4 127.317 540.958 128.721 538.882C130.079 536.759 131.892 537.278 132.615 540.203C133.294 543.128 133.294 544.968 134.471 546.997C135.603 549.026 137.551 548.932 138.003 548.035C138.411 547.139 138.865 546.007 140.313 547.045C141.762 548.083 141.264 548.838 139.996 549.026C138.773 549.168 138.411 551.385 140.902 551.385C143.347 551.385 144.117 551.716 145.701 553.037C147.286 554.405 149.324 552.329 151.679 555.302C154.079 558.321 154.803 561.154 155.437 565.022C156.071 568.938 160.282 571.627 160.418 568.277C160.554 564.88 161.279 562 159.331 562.238C157.384 562.426 158.245 560.35 159.467 560.255C160.69 560.209 162.773 557.85 160.418 556.009C158.018 554.122 157.113 551.952 157.113 551.952C157.113 551.952 156.252 549.026 152.901 548.79C149.596 548.554 150.954 548.177 148.101 546.904C145.203 545.63 141.762 545.159 139.996 543.318C138.275 541.431 136.283 540.393 139.815 538.128C143.347 535.863 144.117 534.684 145.113 537.232C146.154 539.78 147.603 541.431 151.543 542.186C155.528 542.941 158.607 544.97 158.833 546.81C159.06 548.697 160.463 550.207 160.554 547.14C160.645 544.026 159.467 538.553 157.475 536.713C155.437 534.825 151.045 534.306 146.788 534.306C142.532 534.306 139.679 534.448 139.679 534.448C139.679 534.448 137.37 535.061 140.947 531.9C144.569 528.739 147.739 524.964 151.316 525.105C154.939 525.294 160.056 525.106 161.414 531.287C161.414 531.287 162.592 533.74 162.365 536.76C162.139 539.78 163.135 538.742 165.808 538.742C168.478 538.742 174.273 536.713 175.724 537.373C177.174 538.034 177.446 537.279 177.355 535.487C177.309 533.694 179.529 531.901 180.025 529.117C180.524 526.334 180.48 526.05 178.94 526.05C177.446 526.05 175.997 524.682 175.633 522.134C175.272 519.586 176.358 519.35 174.999 516.189C173.641 513.028 172.6 510.481 171.876 507.649C171.197 504.771 170.472 503.072 169.838 502.081C169.204 501.09 168.072 499.439 167.891 501.798C167.755 504.11 164.721 504.912 165.219 507.836C165.763 510.81 166.126 512.791 164.721 514.253C163.363 515.669 159.061 519.868 160.918 514.489C162.774 509.063 162.004 507.27 162.004 505.383C162.004 503.495 162.412 502.316 164.087 501.231C165.763 500.193 168.751 498.635 167.346 496.465C165.897 494.247 164.811 493.54 164.675 490.567Z" fill="#FADF3C"/>
<path d="M208.953 505.362C208.953 505.362 212.397 505.646 211.534 507.64C210.721 509.679 210.721 511.245 209.27 510.391C207.864 509.49 207.003 507.023 207.003 510.391C207.003 513.711 206.595 516.32 205.326 514.565C204.103 512.81 203.515 513.189 202.337 513.379C201.157 513.521 201.157 510.201 202.563 510.628C204.013 511.055 204.919 510.913 204.919 509.158C204.919 507.403 203.74 504.841 202.156 505.885C200.57 506.976 198.576 507.023 197.716 505.031C196.9 502.991 194.951 501.711 191.688 501.331C188.426 500.999 187.519 501.237 185.841 499.434C184.166 497.584 183.396 497.395 183.713 496.256C184.077 495.118 182.489 493.979 181.402 493.979C180.269 493.979 176.281 491.513 175.783 489.758C175.285 488.003 174.106 486.628 173.019 487.197C171.933 487.813 170.481 488.003 170.481 486.533C170.481 485.015 170.119 484.92 172.248 485.11C174.424 485.301 176.371 485.442 177.46 485.205C178.547 484.92 180.224 484.493 180.042 486.533C179.86 488.525 179.453 491.181 184.664 494.408C189.83 497.679 191.19 498.107 194.86 499.341C198.576 500.571 199.845 503.275 208.953 505.362ZM213.258 517.03C213.258 517.03 211.445 519.164 211.762 516.318C212.079 513.52 210.9 510.342 214.253 512.239C217.606 514.184 219.33 515.56 220.733 517.599C222.138 519.591 222.772 521.062 222.772 522.676C222.772 524.241 222.455 524.715 224.086 525.711C225.672 526.755 226.443 528.415 224.721 528.415C223 528.415 221.685 529.126 221.685 529.126C218.875 530.36 220.506 528.32 220.733 527.514C220.96 526.755 219.647 525.616 218.649 525.616C217.697 525.616 216.52 523.814 216.745 521.869C216.928 519.971 215.522 515.322 213.258 517.03Z" fill="#FADF3C"/>
<path d="M115.419 538.094C115.419 538.094 114.006 536.344 114.845 536.003C115.728 535.663 117.892 533.524 118.51 535.274C119.128 537.024 116.7 538.483 115.419 538.094ZM120.099 533.913C120.099 533.913 118.466 533.767 117.671 532.844C116.876 531.92 116.258 532.309 117.715 530.364C119.172 528.42 119.57 529.149 120.541 530.559C121.512 531.969 122.528 534.983 120.099 533.913Z" fill="#2D509F"/>
<path d="M256.101 575.601C256.215 568.694 257.298 562.806 259.348 557.938C261.399 553.069 264.02 548.936 267.21 545.539C270.4 542.143 273.761 539.086 277.292 536.368C280.938 533.651 284.356 531.047 287.546 528.556C290.736 525.952 293.356 523.121 295.407 520.064C297.458 517.007 298.483 513.384 298.483 509.194C298.483 509.194 299.452 509.194 301.389 509.194C303.325 509.194 305.661 509.194 308.395 509.194C311.243 509.194 314.035 509.194 316.769 509.194C319.617 509.194 322.01 509.194 323.947 509.194C325.883 509.194 326.852 509.194 326.852 509.194C326.852 515.761 325.826 521.309 323.776 525.838C321.725 530.254 319.048 534.047 315.744 537.217C312.554 540.388 309.136 543.275 305.49 545.879C301.958 548.37 298.54 550.974 295.236 553.692C292.046 556.296 289.369 559.353 287.204 562.863C285.154 566.26 284.071 570.505 283.957 575.601H256.101ZM256.101 597V575.601H325.997V597H256.101ZM276.78 506.817L252 502.401C253.139 495.947 255.247 490.456 258.323 485.927C261.513 481.398 265.615 477.944 270.628 475.567C275.64 473.189 281.337 472 287.717 472V493.399C284.869 493.399 282.476 494.588 280.539 496.966C278.603 499.231 277.349 502.514 276.78 506.817ZM326.852 509.364H298.483C298.483 504.382 297.515 500.476 295.578 497.645C293.641 494.815 290.964 493.399 287.546 493.399V472C295.065 472 301.787 473.642 307.712 476.925C313.636 480.096 318.307 484.511 321.725 490.173C325.143 495.834 326.852 502.231 326.852 509.364Z" fill="#2D509F"/>
<path d="M337.338 554.371L364.511 474.717H392.879L365.707 554.371H337.338ZM337.338 575.77V554.371H419.197V575.77H337.338ZM381.942 597V529.235H408.089V597H381.942Z" fill="#2D509F"/>
<path d="M443.915 597L479.632 496.117H508L472.283 597H443.915ZM431.268 496.117V474.717H508V496.117H431.268Z" fill="#2D509F"/>
<defs>
<radialGradient id="paint0_radial_84_43" cx="0" cy="0" r="1" gradientUnits="userSpaceOnUse" gradientTransform="translate(304.276 350.415) rotate(91.9033) scale(335.625 345.859)">
<stop/>
<stop offset="1" stop-color="#D7D7D7"/>
</radialGradient>
<radialGradient id="paint1_radial_84_43" cx="0" cy="0" r="1" gradientUnits="userSpaceOnUse" gradientTransform="translate(304.276 350.415) rotate(91.9033) scale(335.625 345.859)">
<stop/>
<stop offset="1" stop-color="#D7D7D7"/>
</radialGradient>
<radialGradient id="paint2_radial_84_43" cx="0" cy="0" r="1" gradientUnits="userSpaceOnUse" gradientTransform="translate(304.276 350.415) rotate(91.9033) scale(335.625 345.859)">
<stop/>
<stop offset="1" stop-color="#D7D7D7"/>
</radialGradient>
<linearGradient id="paint3_linear_84_43" x1="308.607" y1="0" x2="308.607" y2="599" gradientUnits="userSpaceOnUse">
<stop stop-color="#F4AE25"/>
<stop offset="1" stop-color="#EE2229"/>
</linearGradient>
<linearGradient id="paint4_linear_84_43" x1="308.121" y1="0" x2="308.121" y2="599" gradientUnits="userSpaceOnUse">
<stop stop-color="#F4AE25"/>
<stop offset="1" stop-color="#EE2229"/>
</linearGradient>
<linearGradient id="paint5_linear_84_43" x1="308.607" y1="0" x2="308.607" y2="542.592" gradientUnits="userSpaceOnUse">
<stop stop-color="#F47928"/>
<stop offset="1" stop-color="#EE2229"/>
</linearGradient>
<linearGradient id="paint6_linear_84_43" x1="302.019" y1="135.76" x2="302.019" y2="464.277" gradientUnits="userSpaceOnUse">
<stop stop-color="#F16727"/>
<stop offset="1" stop-color="#F4AE25"/>
</linearGradient>
</defs>
</svg>
