<svg width="48" height="48" viewBox="0 0 48 48" fill="none" xmlns="http://www.w3.org/2000/svg">
<path d="M19.2255 38.7012C23.3185 38.7012 23.9636 42 23.9636 42C23.9636 42 24.6087 38.7012 28.7376 38.7012C32.8665 38.7012 34.7321 38.0558 34.7321 35.258C34.7321 32.4253 32.364 31.6375 30.8913 33.9313C30.8913 33.9313 30.4955 30.741 28.27 30.1315C28.27 30.1315 29.0597 25.7201 32.04 25.7201C35.0202 25.7201 35.8089 28.3386 35.3423 30.49C35.3423 30.49 41.0865 28.9841 41.0865 22.6016C41.0865 16.1833 34.1936 15.6813 30.3888 19.6255C30.3888 19.6255 29.7427 11.2351 23.9636 6C18.2563 11.2351 17.6102 19.6255 17.6102 19.6255C13.8054 15.6813 6.91354 16.1833 6.91354 22.6016C6.91354 28.9841 12.6567 30.49 12.6567 30.49C12.1542 28.3386 12.9798 25.7201 15.959 25.7201C18.9034 25.7201 19.728 30.1315 19.728 30.1315C17.5025 30.741 17.1077 33.9313 17.1077 33.9313C15.636 31.6375 13.2669 32.4253 13.2669 35.258C13.2669 38.0558 15.1335 38.7012 19.2255 38.7012Z" fill="white"/>
</svg>
