<svg width="48" height="48" viewBox="0 0 48 48" fill="none" xmlns="http://www.w3.org/2000/svg">
<g clip-path="url(#clip0_120_57)">
<path d="M28.24 8L31.9 12H40V36H8V12H16.1L19.76 8H28.24M30 4H18L14.34 8H8C5.8 8 4 9.8 4 12V36C4 38.2 5.8 40 8 40H40C42.2 40 44 38.2 44 36V12C44 9.8 42.2 8 40 8H33.66L30 4ZM24 18C27.3 18 30 20.7 30 24C30 27.3 27.3 30 24 30C20.7 30 18 27.3 18 24C18 20.7 20.7 18 24 18ZM24 14C18.48 14 14 18.48 14 24C14 29.52 18.48 34 24 34C29.52 34 34 29.52 34 24C34 18.48 29.52 14 24 14Z" fill="white"/>
</g>
<defs>
<clipPath id="clip0_120_57">
<rect width="48" height="48" fill="white"/>
</clipPath>
</defs>
</svg>
