<svg width="48" height="48" viewBox="0 0 48 48" fill="none" xmlns="http://www.w3.org/2000/svg">
<path d="M6.52221 29.808C6.53821 28.832 6.69021 28 6.97821 27.312C7.26621 26.624 7.63421 26.04 8.08221 25.56C8.53021 25.08 9.00221 24.648 9.49821 24.264C10.0102 23.88 10.4902 23.512 10.9382 23.16C11.3862 22.792 11.7542 22.392 12.0422 21.96C12.3302 21.528 12.4742 21.016 12.4742 20.424C12.4742 20.424 12.6102 20.424 12.8822 20.424C13.1542 20.424 13.4822 20.424 13.8662 20.424C14.2662 20.424 14.6582 20.424 15.0422 20.424C15.4422 20.424 15.7782 20.424 16.0502 20.424C16.3222 20.424 16.4582 20.424 16.4582 20.424C16.4582 21.352 16.3142 22.136 16.0262 22.776C15.7382 23.4 15.3622 23.936 14.8982 24.384C14.4502 24.832 13.9702 25.24 13.4582 25.608C12.9622 25.96 12.4822 26.328 12.0182 26.712C11.5702 27.08 11.1942 27.512 10.8902 28.008C10.6022 28.488 10.4502 29.088 10.4342 29.808H6.52221ZM6.52221 32.832V29.808H16.3382V32.832H6.52221ZM9.42621 20.088L5.94621 19.464C6.10621 18.552 6.40221 17.776 6.83421 17.136C7.28221 16.496 7.85821 16.008 8.56221 15.672C9.26621 15.336 10.0662 15.168 10.9622 15.168V18.192C10.5622 18.192 10.2262 18.36 9.95421 18.696C9.68221 19.016 9.50621 19.48 9.42621 20.088ZM16.4582 20.448H12.4742C12.4742 19.744 12.3382 19.192 12.0662 18.792C11.7942 18.392 11.4182 18.192 10.9382 18.192V15.168C11.9942 15.168 12.9382 15.4 13.7702 15.864C14.6022 16.312 15.2582 16.936 15.7382 17.736C16.2182 18.536 16.4582 19.44 16.4582 20.448Z" fill="white"/>
<path d="M18.0087 26.808L21.8247 15.552H25.8087L21.9927 26.808H18.0087ZM18.0087 29.832V26.808H29.5047V29.832H18.0087ZM24.2727 32.832V23.256H27.9447V32.832H24.2727Z" fill="white"/>
<path d="M33.0538 32.832L38.0698 18.576H42.0538L37.0378 32.832H33.0538ZM31.2778 18.576V15.552H42.0538V18.576H31.2778Z" fill="white"/>
</svg>
