<?xml version="1.0" encoding="utf-8"?>
<!-- Generator: Adobe Illustrator 27.1.1, SVG Export Plug-In . SVG Version: 6.00 Build 0)  -->
<svg version="1.1" id="Layer_1" xmlns="http://www.w3.org/2000/svg" xmlns:xlink="http://www.w3.org/1999/xlink" x="0px" y="0px"
	 viewBox="0 0 618 618" style="enable-background:new 0 0 618 618;" xml:space="preserve">
<style type="text/css">
	.st0{fill:url(#SVGID_1_);fill-opacity:0.18;}
	.st1{fill:url(#SVGID_00000016790043832061928640000000221671539413757869_);fill-opacity:0.18;}
	.st2{fill:url(#SVGID_00000088826353096320824900000012575884051397559956_);fill-opacity:0.18;}
	.st3{fill:url(#SVGID_00000002352709471710825760000001601424153425605257_);}
	.st4{fill:url(#SVGID_00000029045346650608849280000012268288442722151055_);}
	.st5{fill:url(#SVGID_00000039105919652032800910000002218335214876945563_);}
	.st6{fill:url(#SVGID_00000091732575767938236540000013007306551889042600_);}
	.st7{fill:#2D509F;}
	.st8{fill:#FADF3C;}
</style>
<g id="logo">
	<g id="Liz">
		
			<radialGradient id="SVGID_1_" cx="296.1691" cy="320.6155" r="0.9695" gradientTransform="matrix(-11.147 335.4398 345.6682 11.4869 -107220.3906 -102670.7656)" gradientUnits="userSpaceOnUse">
			<stop  offset="0" style="stop-color:#000000"/>
			<stop  offset="1" style="stop-color:#D7D7D7"/>
		</radialGradient>
		<path class="st0" d="M208.4,161.8c-2.7-82.1,51-113.7,100.3-142.5h0.5c49.2,28.8,102.9,60.4,100.3,142.5
			c-3,92.5-64.4,148.1-64.4,222.6c0,74.5,17.6,96.5,38,128.9c-2.1,5.6-14.3,23.5-25.6,34.4c-11.6,11.2-33.4,24.8-48.2,32h-0.5
			c-14.8-7.2-36.6-20.8-48.2-32c-11.3-10.9-23.5-28.8-25.6-34.4c20.4-32.4,38-54.4,38-128.9C272.9,309.9,211.5,254.3,208.4,161.8z"
			/>
		
			<radialGradient id="SVGID_00000106839904189767346830000009891850622881708452_" cx="296.1691" cy="320.6155" r="0.9695" gradientTransform="matrix(-11.147 335.4398 345.6682 11.4869 -107220.3906 -102670.7656)" gradientUnits="userSpaceOnUse">
			<stop  offset="0" style="stop-color:#000000"/>
			<stop  offset="1" style="stop-color:#D7D7D7"/>
		</radialGradient>
		<path style="fill:url(#SVGID_00000106839904189767346830000009891850622881708452_);fill-opacity:0.18;" d="M496.8,311.9
			c30.4,6.7,32,48.4,26,55.6c20.8,12.8,41.2,1.2,66.8-27.6c27.5-30.9,28.8-111.3-26-138.5c-49.2-24.4-88.7-9.2-106.5,6.8
			c-24.8,22.4-60,71.6-76.1,135.7c-19,76-5.6,139.3,29.6,162.5c22.4,14.8,40.8,12.8,54-5.2c8.9-12.2,11.9-28.8,7.6-34.8
			c-2.8,3.6-9.4,11.6-24.8,10c-22.8-2.4-43.9-55.2-36.8-88.1C425.1,321.1,460.7,303.9,496.8,311.9z"/>
		
			<radialGradient id="SVGID_00000183951221028818176070000007418845709601579184_" cx="296.1691" cy="320.6155" r="0.9695" gradientTransform="matrix(-11.147 335.4398 345.6682 11.4869 -107220.3906 -102670.7656)" gradientUnits="userSpaceOnUse">
			<stop  offset="0" style="stop-color:#000000"/>
			<stop  offset="1" style="stop-color:#D7D7D7"/>
		</radialGradient>
		<path style="fill:url(#SVGID_00000183951221028818176070000007418845709601579184_);fill-opacity:0.18;" d="M121.2,311.9
			c-30.4,6.7-32,48.4-26,55.6c-20.8,12.8-41.2,1.2-66.8-27.6C0.9,309-0.5,228.7,54.4,201.4c49.2-24.4,88.7-9.2,106.5,6.8
			c24.8,22.4,60,71.6,76.1,135.7c19,76,5.6,139.3-29.6,162.5c-22.4,14.8-40.8,12.8-54-5.2c-8.9-12.2-11.9-28.8-7.6-34.8
			c2.8,3.6,9.4,11.6,24.8,10c22.8-2.4,43.9-55.2,36.8-88.1C192.9,321.1,157.3,303.9,121.2,311.9z"/>
	</g>
	<g id="Fenix">
		
			<linearGradient id="SVGID_00000112628659543957936510000000435988054159282328_" gradientUnits="userSpaceOnUse" x1="146.4175" y1="599.6927" x2="146.4175" y2="18.947" gradientTransform="matrix(1 0 0 -1 0 619)">
			<stop  offset="0" style="stop-color:#F4AE25"/>
			<stop  offset="1" style="stop-color:#EE2229"/>
		</linearGradient>
		<path style="fill:url(#SVGID_00000112628659543957936510000000435988054159282328_);" d="M199.7,212.7
			c26.2,16,36.8,40.7,36.8,40.7s-3.2,4.8-5.8,9.7s-4.4,13.6-4.4,13.6c-5.7-4.4-20.4-19.9-36.4-26.2c-15.8-6.2-30.5-10.7-42.7-16.5
			c-8.2-4-19.4-12.6-33-26.2c17,23.8,29.6,35.9,47,49.9c9.5,7.7,25.7,18.4,41.2,34.4c9.1,9.4,11.6,16.5,14.1,26.2
			c-5-4.2-13.1-10.7-19.4-13.1c-5.7-2.2-12.6-2.4-20.8-2.4c-6.8,0-18.4,0.5-29.1,1.9c45.1,9.2,51.1,19.5,60.6,35.9
			c9.2,16,4,43.5-1.5,55.3c-3.9-26.2-8.2-47-21.8-56.2c-15.5-10.5-55.7-11.6-75.6-26.7c-15.3-11.6-22.8-20.8-33.9-49
			c6.5,3.7,21.3,15.5,36.4,17.5c15,1.9,31-3.9,31-3.9s-45.6-26.2-68.4-65.4S54.7,117.7,61,90.6c12.6,52.8,31.5,70.8,58.2,84.3
			C145.8,188.5,176.2,198.4,199.7,212.7z"/>
		
			<linearGradient id="SVGID_00000078756809147050890420000005908818700593910420_" gradientUnits="userSpaceOnUse" x1="469.236" y1="599.6927" x2="469.236" y2="18.947" gradientTransform="matrix(1 0 0 -1 0 619)">
			<stop  offset="0" style="stop-color:#F4AE25"/>
			<stop  offset="1" style="stop-color:#EE2229"/>
		</linearGradient>
		<path style="fill:url(#SVGID_00000078756809147050890420000005908818700593910420_);" d="M354.8,290.8
			c-10.2,23.4-7.3,66.7-7.3,66.7c23.8-48.3,56.2-70.5,76.3-78.4c19.8-7.8,38.3-13.4,53.5-20.7c10.3-5,24.3-15.8,41.3-32.8
			c-21.3,29.8-37.1,45-59,62.6c-11.9,9.6-32.2,23.1-51.7,43.2c-11.4,11.7-14.6,20.7-17.6,32.8c6.3-5.3,16.4-13.4,24.3-16.4
			c7.1-2.7,15.8-3,26.1-3c8.5,0,23.1,0.6,36.5,2.4c-56.5,11.5-64.1,24.4-76,45c-11.5,20.1-5.1,54.5,1.8,69.3
			c4.9-32.8,10.3-59,27.4-70.5c19.4-13.2,69.9-14.6,94.8-33.4c19.2-14.5,28.6-26.1,42.5-61.4c-8.1,4.7-26.7,19.5-45.6,21.9
			c-18.8,2.4-38.9-4.9-38.9-4.9s57.1-32.8,85.7-82.1c28.6-49.2,24.3-118.5,16.4-152.6c-15.8,66.3-39.5,88.8-72.9,105.8
			c-33.4,17-71.4,29.4-100.9,47.4C378.8,251.7,365,267.4,354.8,290.8z"/>
		
			<linearGradient id="SVGID_00000085958517028950390800000002091454404674439816_" gradientUnits="userSpaceOnUse" x1="309.3087" y1="599.6927" x2="309.3087" y2="73.636" gradientTransform="matrix(1 0 0 -1 0 619)">
			<stop  offset="0" style="stop-color:#F47928"/>
			<stop  offset="1" style="stop-color:#EE2229"/>
		</linearGradient>
		<path style="fill:url(#SVGID_00000085958517028950390800000002091454404674439816_);" d="M238,122.1c-9.7,9.7-10.7,21.3-9.7,25.2
			c26.7-13.1,44.7,3.9,52.8,13.1c11.1,12.6,13.1,28.6,7.3,59.6c-6.8,35.9-19.4,51.9-17.5,90.2c3.7,72.2,61.1,98.4,82.9,111.5
			c-20.4-29.1-48.5-81-47-111.5c1.5-30.5,3.4-41.4,8.7-66.9c4.8-23.3,6.8-43.1,4.8-53.3c2.6,4.7,8.7,10.7,11.1,24.2
			c1.3,7.5,5.8,37.8,6.8,48c0.7,7.3,3.4,28.6,7.3,40.2c1.9-10.7,2.9-18.9,8.2-28.6c4.6-8.4,13.1-16,13.1-16
			c-1-10.7-3.4-19.5-5.3-33.4c-1.9-14-7.8-29.1-12.1-36.8c2.9,0,7.8-0.3,12.1-1.9c3.7-1.4,6.6-3.7,7.8-5.3c-9.7-5.3-15-8.7-20.8-15
			c-5.2-5.7-9.7-16.8-11.1-22.3c8.7,1,15,0.8,22.3-1.5c17.5-5.3,26.7-14.1,31-20.8c-6.3,2.4-16,4.9-25.2,3.9
			c-17-1.8-24.7-5.3-32.5-9.7c6.3-0.5,11.6-2.1,14.5-3.9c2.4-1.5,5.3-7.3,7.3-13.6c-9.2,2.4-18.9,4.4-39.3,4.4
			c-4.4,0-11.6-4.4-36.4,0c-7,1.2-19.1,9-24.2,12.6C251.9,115.1,243.8,116.2,238,122.1z"/>
		
			<linearGradient id="SVGID_00000029019554386163715990000006814940570555997587_" gradientUnits="userSpaceOnUse" x1="302.6127" y1="468.07" x2="302.6127" y2="149.5644" gradientTransform="matrix(1 0 0 -1 0 619)">
			<stop  offset="0" style="stop-color:#F16727"/>
			<stop  offset="1" style="stop-color:#F4AE25"/>
		</linearGradient>
		<path style="fill:url(#SVGID_00000029019554386163715990000006814940570555997587_);" d="M278.7,191.9c3.5-19.2-1-26.7-14.5-45.6
			c10.7,6.8,21.3,14.1,27.1,33.4c7.8,39.3-22.9,90-23.8,141.6c-0.5,32.2,12.1,62.5,33.4,85.3s65.9,43.1,73.7,47
			c-24.2-2.9-57.7-8.3-80-20.8c-43.2-24.4-65.9-60.6-64-111.5S274.3,216.1,278.7,191.9z"/>
	</g>
	<g id="Wolf">
		<path class="st7" d="M201.3,577.4c0,0-4-4-5.8,0.1c-1.8,4.2-3.6,9-4.3,10.9c-0.7,1.9-2.8,5.7-5.6,5.7c0,0-2.2,4.5-9.6,4.5
			c-7.4,0-11.2-2.3-13.8-5.2c0,0-6.1-2.6-6.9-12.3c0,0-5.1-1.6-6.5-3.3c-1.3-1.7-3-2.9-4.3-2.9c-1.3,0-1.1-3.4-3.6-2.6
			c-2.5,0.9-2.6,0.4-2.6-0.8c0-1.2,0-1.9-2.2-2.8c-2.2-0.9-4-3-5.6-2.4c-1.7,0.7-2-0.4-2.2-1.7c-0.2-1.4-1.5-3.3-3-4.3
			c-1.5-1.1-2.8-1.7-4-1.2c-1.2,0.6-1.7-0.3-1.7-2.2c0-1.9-1.8-1.5-2.3-4.1c-0.5-2.6-2.3-3.3-2.5-6.2c-0.2-2.9-0.8-4.3-2.3-4.6
			c-1.5-0.4-0.8-2.2,0.4-4.5c1.1-2.3,3.1-6.9,3.1-9.4c0-2.4,0.4-3.4,2-3.4c1.7,0,2.7-2.2,2.7-4.8c0-2.6,0-4.4,2.3-3.8
			c0,0,1.7-5.9,4-8.8c2.3-2.9,2.8-3.1,2-5.6c-0.8-2.4-2.8-13.8-0.7-20.9c2.2-7.1,2.5-3.8,5-0.7c2.5,3.1,6,7.8,6,10.1
			c0,0,6.9-1.7,5,6.4c0,0,7.9,6.1,9.4,2.3c1.5-3.8,2-4.7-3.6-10.4c-5.6-5.7-12.2-11.1-14.1-11.8c-1.8-0.7-1.2-2.8,4.7-0.3
			c5.9,2.4,10.4,8.7,13.3,10.4c2.9,1.7,5.8,3.2,9.5,1.7c3.7-1.5,6.8-3.4,10.3-0.1c0,0,5.5-2.2,9.3-1.2c3.8,1.1,6.5,2.8,12.1-0.4
			c5.5-3.2,18-10.8,22.5-11.2c4.4-0.4-4.4,5.2-6.2,6.2c-1.8,1-13.4,8.1-15.6,10.1c0,0,0.1,4.3,6.5,7.3c0,0,0.4-1.6,0.3-2.6
			c-0.1-1,0.5-2.8,2.8-2.3c2.3,0.6,2.4-2.6,2.2-3.6c-0.2-1.1,0.6-2.5,2.2-2.5c1.5,0,3.2-1.8,5.5-4c2.4-2.2,4-4.5,4-4.5
			s1-1.6,0.8,3.1c-0.2,4.7-4.8,16.6-6.5,19.8c-1.7,3.2,2.8-0.3,3.8-3.1c1.1-2.8,3.8-11.8,4.4-14c1-4.1,2.1,0.7,1,3.4
			c-1,2.6-2.2,8.3-1.5,10.2c0.6,2,0,5.4,0.3,6.8c0.3,1.4-1.5,1.8-1.9,2.8c-0.5,1,0.3,1.4,1.8,2.9c1.4,1.5,2.8,1.1,2.8,3.4
			c0,2.2,0.3,2.5,2.4,3.2c2.1,0.7,2.1,1.3,1.9,2.8c-0.1,1.5,0.1,2.9,1.2,5.2c1.1,2.2,3.1,5.9,2.8,7c-0.3,1.1-2,3.7-0.1,4.3
			c1.9,0.6,2.3,3,1.8,5.1c-0.5,2.2,0.1,3.1,1.1,3.5c0.9,0.3,0,4.2-1.4,4.7c-1.3,0.5-2.4,1.6-3,3.5c-0.6,1.9-2.2,5.8-3.8,5.6
			c-1.7-0.2-2.9,0.9-2.9,1.4c0,0.5-1.4,1.1-2.4,1c-1.1-0.2-2.3,0.5-3,1.7c-0.7,1.2,0.5,4.6-1.4,3.3c-1.8-1.3-3.3-0.3-3.5,1
			c-0.2,1.3-0.1,2.4-2.8,2.4c-2.7,0-4.2,1.5-6,2C203.2,573.1,201.7,573.5,201.3,577.4z"/>
		<path class="st8" d="M186,554.4c0,0-0.3-2.1,0.2-4.1c0.5-2.1,0.2-4.8,0.2-4.8s7.8-2.8,10.5-4.7c2.8-2,4-0.8,3.8,1.3
			c-0.2,2.2,1.2,2.2-0.6,4.3c-1.8,2.2-2.3,4.5-5.3,4.4c-3-0.2-7.4-1-7.4,1.4C187.5,554.4,187.2,556.4,186,554.4z"/>
		<path class="st8" d="M169.5,494.9c0,0-0.4-2.7-1.9-1c-1.5,1.7-3.4,4.4-3.9,5.5c-0.4,1.2-0.9,2.1-2.9,2.6c-2,0.6-3.3,2-5.2,2.2
			c-1.8,0.2-4.9,1-1.8-1.6c3.2-2.6,6.9-4.5,8.4-6.4c1.5-1.9,1.4-1.6,1.4-3.5c0-1.9-0.7-2.8,1.3-3.2c2-0.3,3.6-1.5,5.6-0.1
			c2,1.4,2.5,1,2.5,4.2c-0.1,3.2,0,5.8,1.3,4.3c1.2-1.6,0.8-1,2.4,0.4c1.5,1.4,3,1.9,4.9,2.8c1.9,0.9,2.1,3.1-0.1,3.1
			c-2.1,0-1.8-0.2-1.7,2.2c0,2.4-1.3,3.3-0.4,4.9c1,1.7,2.4,2.6,2.2,4.2c-0.1,1.7,0.2,2.8,1,3.8c0.8,1,2,2.2,1.9,3.8
			c-0.1,1.6,0.3,2.3,1.8,3.8c1.5,1.5,1.2,1.2,5.2,1.4c4,0.2,5.2,0.5,5.9,1.6c0.7,1.1,1.9,2.5,3.4,2.8c1.4,0.3,3.6-0.4,4.1,1
			c0.5,1.4,2.2,0.1,3.7,0.1s4.3-2.7,6.3-0.7c2,2,3.4,1.5,3.7,2c0.3,0.5,2.2,0.6,3.4,0.6c1.2,0,6.6-2.5,5.7-0.1
			c-0.9,2.3-0.6,1.9,1.3,3.3c1.9,1.5,2,2,2,4.4c0,2.5,0,8.7-1.5,8c-1.4-0.8-3.3-0.8-3.3-0.8s-1.4,1.1,0.1,1.7c1.6,0.7,0.3,2-1.4,2.3
			c-1.7,0.3-3.9-0.7-3.6,1.5c0.3,2.1-1.7,1.1-3,1.1c-1.3,0-3.6-0.5-5.6,2.1c-2,2.7-6.1,5.2-9.8,5.2c-3.7,0-8.9,0.5-10.4,1.1
			c-1.5,0.6-3.1,0.6-2.5-2.5c0.7-3.2-1-3.6,2.7-5.8c3.6-2.2,8.2-4.8,10-6.7c1.8-1.9,2.1-3.5,2.1-6.1c0-2.6,0.9-4.8,3.7-4.4
			c2.8,0.4,2.9,0.1,3.8-1.2c0.8-1.4,1.4-2.2-0.4-2.2c-1.8,0.1-10.4,0.1-13.4-0.3c-3-0.4-5.6-2-7.8,0.2c-2.2,2.2-4.9,1.6-5.7,4.8
			c-0.7,3.2-1.1,6.1-1.1,6.1s-0.7,3.5-1.8,0.5c-1.1-3-1.6-3.9-2.6-3.4c-1,0.6-0.9,4.5-2.5,3.2c-1.6-1.3-1.7-1.7-1.5-3.4
			c0.1-1.7-1.2-2.1-1.4-0.5c-0.1,1.6-0.5,5.5,0.4,6.9c0,0-2.4,0.5-3.8,3.3c-1.4,2.7-1.7,5.2-1.2,8.6c0.5,3.4,1.5,7.9,1.6,10.4
			c0.1,2.6-0.1,3.8-0.1,3.8s4.2-0.5,6.5,1c2.4,1.6,2.6,2.8,0.4,3.6c-2.2,0.7-5.2,1.5-6.4,0.1c-1.2-1.3-1.9-2.4-4.2-1.8
			c-2.2,0.6-2.8,1.8-1.3,5c1.4,3.2,6.8,6.9,10.1,6.9c3.4,0,6.8-2.1,8.2-7.2c1.4-5.2,2.3-7.8,3.3-8.9c1-1.2,2.7-0.7,3.3,1.8
			c0,0,1,6.5-1.7,11.5c-2.7,5-3.8,4.2-5.3,4.1c-1.5-0.1-5.4-0.4-7.3,0.5c-1.9,0.8-9,0.6-11.1-0.2c-2.1-0.8-4.9-1.6-6.9-5.2
			c-2-3.6-3.4-7.6-0.1-13.8c0,0-2.1-1.9-2-3.5c0-1.6-0.4-2-1.8-2.1c-1.4-0.1-1.1-3.3-4.3-3c-3.1,0.5-8.2,0.5-8.8-1.1
			c-0.7-1.6-1.8-2.3-3.1-1.7c-1.3,0.6-4.1,0.5-4.1-1c0-1.6-0.6-1.7-2-1.7c-1.3,0-2.3,0.5-4.5-2c-2.2-2.5-4.6-4.4-4.1-6.4
			c0.5-1.9,0.4-3.7-0.7-6.1c-1.1-2.4-1.4-2.9-2.6-1.3c-1.2,1.6-2.9,2.4-3.2-0.1c-0.4-2.6-0.2-3.1,0-8.3c0.2-5.2,1-2.5,1-5.1
			c0-2.6,0-2.5,1.7-3.6c1.7-1.1,2.9-4.3,3.4-8.6c0.5-4.4,1.9-5.3,2.5-3.4c0.7,1.8,1.7,3.6,4.3,0.8c2.7-2.8,11.1-8.2,15.8-9.9
			c4.7-1.7,4.8-0.6,3.1,1.7c-1.8,2.3-4.7,1-6.6,3.9c-1.9,2.9-9.4,9.3-10.9,10.9c-1.5,1.6-3.6,3.9-3.2,5.5c0.4,1.5,2,1.4,3,2.5
			c1,1,0.6,3-1.1,4.3c0,0,0.7,2.5-0.7,3.7c-1.4,1.1-0.3,2.1,1.2,2.9c1.5,0.8,2.2,2.3,3.6,0.3c1.3-2.1,3.1-1.6,3.8,1.3
			c0.7,2.8,0.7,4.6,1.8,6.6c1.1,2,3,1.9,3.4,1c0.4-0.9,0.8-2,2.2-1c1.4,1,0.9,1.7-0.3,1.9c-1.2,0.1-1.5,2.3,0.9,2.3
			c2.4,0,3.1,0.3,4.7,1.6c1.5,1.3,3.5-0.7,5.8,2.2c2.3,2.9,3,5.7,3.6,9.4c0.6,3.8,4.7,6.4,4.8,3.2c0.1-3.3,0.8-6.1-1.1-5.9
			c-1.9,0.2-1.1-1.8,0.1-1.9c1.2,0,3.2-2.3,0.9-4.1c-2.3-1.8-3.2-3.9-3.2-3.9s-0.8-2.8-4.1-3.1c-3.2-0.2-1.9-0.6-4.7-1.8
			c-2.8-1.2-6.1-1.7-7.9-3.5c-1.7-1.8-3.6-2.8-0.2-5s4.2-3.3,5.1-0.9c1,2.5,2.4,4.1,6.2,4.8c3.9,0.7,6.8,2.7,7.1,4.5
			c0.2,1.8,1.6,3.3,1.7,0.3c0.1-3-1.1-8.3-3-10.1c-2-1.8-6.2-2.3-10.4-2.3c-4.1,0-6.9,0.1-6.9,0.1s-2.2,0.6,1.2-2.5
			c3.5-3.1,6.6-6.7,10.1-6.6c3.5,0.2,8.5,0,9.8,6c0,0,1.1,2.4,0.9,5.3c-0.2,2.9,0.7,1.9,3.3,1.9c2.6,0,8.2-2,9.6-1.3
			c1.4,0.6,1.7-0.1,1.6-1.8c0-1.7,2.1-3.5,2.6-6.2c0.5-2.7,0.4-3-1.1-3c-1.4,0-2.9-1.3-3.2-3.8c-0.3-2.5,0.7-2.7-0.6-5.8
			c-1.3-3.1-2.3-5.5-3-8.3c-0.7-2.8-1.4-4.4-2-5.4c-0.6-1-1.7-2.6-1.9-0.3c-0.1,2.2-3.1,3-2.6,5.9c0.5,2.9,0.9,4.8-0.5,6.2
			c-1.3,1.4-5.5,5.4-3.7,0.2c1.8-5.3,1.1-7,1.1-8.8c0-1.8,0.4-3,2-4c1.6-1,4.5-2.5,3.2-4.6C170.6,498.5,169.6,497.8,169.5,494.9z"/>
		<path class="st8" d="M212.4,509.3c0,0,3.3,0.3,2.5,2.2c-0.8,2-0.8,3.5-2.2,2.7c-1.4-0.9-2.2-3.3-2.2,0c0,3.2-0.4,5.7-1.6,4
			c-1.2-1.7-1.8-1.3-2.9-1.1c-1.1,0.1-1.1-3.1,0.2-2.7c1.4,0.4,2.3,0.3,2.3-1.4c0-1.7-1.1-4.2-2.7-3.2c-1.5,1.1-3.5,1.1-4.3-0.8
			c-0.8-2-2.7-3.2-5.8-3.6c-3.2-0.3-4-0.1-5.7-1.8c-1.6-1.8-2.4-2-2.1-3.1c0.4-1.1-1.2-2.2-2.2-2.2c-1.1,0-5-2.4-5.4-4.1
			c-0.5-1.7-1.6-3-2.7-2.5c-1.1,0.6-2.5,0.8-2.5-0.6c0-1.5-0.4-1.6,1.7-1.4c2.1,0.2,4,0.3,5.1,0.1c1.1-0.3,2.7-0.7,2.5,1.3
			c-0.2,1.9-0.6,4.5,4.5,7.6c5,3.2,6.3,3.6,9.9,4.8C202.3,504.6,203.6,507.2,212.4,509.3z M216.6,520.6c0,0-1.8,2.1-1.5-0.7
			c0.3-2.7-0.8-5.8,2.4-4c3.3,1.9,4.9,3.2,6.3,5.2c1.4,1.9,2,3.4,2,4.9c0,1.5-0.3,2,1.3,2.9c1.5,1,2.3,2.6,0.6,2.6
			c-1.7,0-2.9,0.7-2.9,0.7c-2.7,1.2-1.1-0.8-0.9-1.6c0.2-0.7-1.1-1.8-2-1.8c-0.9,0-2.1-1.7-1.8-3.6
			C220.1,523.4,218.8,518.9,216.6,520.6z"/>
		<path class="st7" d="M121.7,541c0,0-1.4-1.7-0.6-2c0.9-0.3,3-2.4,3.6-0.7C125.3,540,122.9,541.4,121.7,541z M126.2,536.9
			c0,0-1.6-0.1-2.4-1c-0.8-0.9-1.4-0.5,0-2.4c1.4-1.9,1.8-1.2,2.7,0.2C127.6,535.1,128.6,538,126.2,536.9z"/>
	</g>
	<g id="_x32_47">
		<path id="two" class="st7" d="M258.1,577.4c0.1-6.7,1.2-12.4,3.1-17.1c2-4.7,4.5-8.7,7.6-12c3.1-3.3,6.4-6.3,9.8-8.9
			c3.5-2.6,6.8-5.2,9.9-7.6c3.1-2.5,5.6-5.3,7.6-8.2c2-3,3-6.5,3-10.5c0,0,0.9,0,2.8,0c1.9,0,4.1,0,6.8,0c2.8,0,5.5,0,8.1,0
			c2.8,0,5.1,0,7,0c1.9,0,2.8,0,2.8,0c0,6.4-1,11.7-3,16.1c-2,4.3-4.6,8-7.8,11c-3.1,3.1-6.4,5.9-9.9,8.4c-3.4,2.4-6.7,4.9-9.9,7.6
			c-3.1,2.5-5.7,5.5-7.8,8.9c-2,3.3-3,7.4-3.1,12.3H258.1z M258.1,598.1v-20.7h67.8v20.7H258.1z M278.1,510.7l-24-4.3
			c1.1-6.3,3.1-11.6,6.1-16c3.1-4.4,7.1-7.7,11.9-10c4.9-2.3,10.4-3.5,16.6-3.5v20.7c-2.8,0-5.1,1.2-7,3.5
			C279.9,503.3,278.7,506.5,278.1,510.7z M326.7,513.1h-27.5c0-4.8-0.9-8.6-2.8-11.4c-1.9-2.7-4.5-4.1-7.8-4.1v-20.7
			c7.3,0,13.8,1.6,19.6,4.8c5.7,3.1,10.3,7.4,13.6,12.8C325,500,326.7,506.2,326.7,513.1z"/>
		<path id="four" class="st7" d="M336.9,556.8l26.3-77.2h27.5l-26.3,77.2H336.9z M336.9,577.5v-20.7h79.4v20.7H336.9z M380.1,598.1
			v-65.7h25.4v65.7H380.1z"/>
		<path id="seven" class="st7" d="M440.2,598.1l34.6-97.8h27.5l-34.6,97.8H440.2z M427.9,500.3v-20.7h74.4v20.7H427.9z"/>
	</g>
</g>
</svg>
